<svg width="26" height="26" viewBox="0 0 26 26" fill="none" xmlns="http://www.w3.org/2000/svg">
<path d="M17.1135 19.5601L9.29559 6.25349C8.96805 5.69457 8.50945 5.52976 7.98532 5.57992C7.55585 5.63008 6.98811 5.85222 6.46397 6.15318C4.64419 7.1922 3.95266 8.79014 2.18381 9.79334C1.41222 10.2304 0.742528 10.3953 0.422243 10.5744C0.0437239 10.7894 -0.123698 11.1476 0.101958 11.5418L3.0282 16.5362C3.35576 17.0952 3.82163 17.2528 4.33846 17.2026C4.76793 17.1525 5.34299 16.9303 5.85981 16.6222C7.68691 15.5832 8.37112 13.9924 10.14 12.9821C10.7296 12.6524 11.2683 12.4733 11.6104 12.3443L16.1599 20.1047C16.3128 20.3699 16.6403 20.4558 16.9096 20.3054C17.1644 20.1549 17.259 19.8181 17.1135 19.5601ZM13.503 11.7066L14.1363 12.7814L14.391 12.3443C14.7332 12.4733 15.2646 12.6524 15.8614 12.9821C17.623 13.9924 18.3146 15.5832 20.1343 16.6222C20.6585 16.9303 21.2263 17.1525 21.6557 17.2026C22.1798 17.2528 22.6384 17.0952 22.9659 16.5362L25.8995 11.5418C26.1252 11.1476 25.9504 10.7894 25.5792 10.5744C25.2589 10.3953 24.582 10.2304 23.8104 9.79334C22.0415 8.79014 21.3573 7.1922 19.5375 6.15318C19.0134 5.85222 18.4383 5.63008 18.0161 5.57992C17.492 5.52976 17.0334 5.69457 16.7058 6.25349L13.503 11.7066ZM12.4985 15.576L11.8579 14.494L8.88799 19.5601C8.73512 19.8181 8.83699 20.1549 9.09179 20.3054C9.36112 20.4558 9.68866 20.3699 9.83426 20.1047L12.4985 15.576Z" fill="#262626"/>
</svg>
