<svg width="68" height="68" viewBox="0 0 68 68" fill="none" xmlns="http://www.w3.org/2000/svg">
<rect width="68" height="68" rx="8" fill="#CBEA7B"/>
<g clip-path="url(#clip0_1_708)">
<path d="M23.561 16.7007C22.7407 18.5925 22.3557 20.4842 22.3557 22.3257C22.3557 28.4362 26.6748 33.4418 33.4047 33.4418C40.1347 33.4418 44.4539 28.4362 44.4539 22.3257C44.4539 20.4842 44.0689 18.5925 43.2653 16.7007C42.897 15.8971 41.9427 15.78 41.3066 16.4329L37.5566 20.2498L34.359 16.1148C33.84 15.4451 32.9694 15.4451 32.4673 16.1148L29.2697 20.2498L25.503 16.4329C24.8668 15.78 23.9126 15.8971 23.561 16.7007ZM32.0654 50.4843C32.0654 51.2375 32.6514 51.7398 33.4047 51.7398C42.0599 51.7398 50.0119 46.3994 52.6236 38.8994C52.9919 37.8781 52.6067 37.2253 51.5186 37.2253C42.9639 37.2253 36.8031 42.2475 34.3256 48.5924L34.7609 49.1617V31.751H32.0654V50.4843ZM29.772 44.0891C26.6246 40.0043 21.5856 37.2253 15.2407 37.2253C14.1525 37.2253 13.7675 37.8781 14.1358 38.8994C16.3791 45.395 22.6068 50.2833 29.9059 51.4384C29.8221 51.1538 29.772 50.819 29.772 50.4843V44.0891Z" fill="#262626"/>
</g>
<defs>
<clipPath id="clip0_1_708">
<rect width="38.7593" height="36.3114" fill="white" transform="translate(14 15.4285)"/>
</clipPath>
</defs>
</svg>
