<svg width="630" height="478" viewBox="0 0 630 478" fill="none" xmlns="http://www.w3.org/2000/svg">
<rect width="630" height="477.663" rx="30" fill="#F7FCE9"/>
<path d="M315.322 285.658C299.695 285.658 284.067 285.658 268.44 285.658C267.676 285.658 266.903 285.658 266.136 285.579C262.224 285.215 260.651 282.589 262.319 279.038C263.767 275.972 265.347 272.985 266.88 269.952C274.119 255.671 281.358 241.393 288.597 227.117C288.821 226.681 289.054 226.245 289.314 225.828C291.137 222.916 294.099 222.507 296.432 225.018C298.077 226.776 299.469 228.75 300.936 230.655C308.395 240.367 315.853 250.083 323.311 259.804C326.569 264.034 330.672 264.263 334.499 260.46C336.397 258.571 338.253 256.633 340.175 254.761C343.64 251.384 347.572 251.587 350.401 255.525C356.081 263.427 361.619 271.434 367.183 279.415C367.618 280.041 367.951 280.732 368.17 281.461C368.71 283.294 367.946 284.769 366.08 285.258C364.911 285.537 363.71 285.666 362.507 285.642C346.787 285.668 331.059 285.673 315.322 285.658Z" fill="#98989A"/>
<path d="M350.369 207.407C350.365 210.455 349.452 213.434 347.748 215.965C346.043 218.495 343.623 220.465 340.793 221.623C337.964 222.782 334.853 223.077 331.855 222.472C328.857 221.866 326.107 220.387 323.954 218.223C321.8 216.058 320.341 213.305 319.759 210.312C319.178 207.32 319.501 204.222 320.689 201.413C321.876 198.604 323.874 196.21 326.428 194.533C328.983 192.857 331.98 191.974 335.038 191.997C339.111 192.048 343.001 193.693 345.869 196.575C348.736 199.458 350.352 203.348 350.369 207.407Z" fill="#98989A"/>
</svg>
