<svg width="108" height="94" viewBox="0 0 108 94" fill="none" xmlns="http://www.w3.org/2000/svg">
<path d="M54.322 93.658C38.6946 93.658 23.0671 93.658 7.43969 93.658C6.6763 93.658 5.90305 93.658 5.13637 93.5793C1.22403 93.2154 -0.348804 90.589 1.31945 87.0379C2.76725 83.9722 4.34667 80.9851 5.88001 77.9521C13.119 63.6715 20.358 49.393 27.597 35.1167C27.8207 34.6806 28.0543 34.2445 28.3143 33.8281C30.1372 30.9164 33.0986 30.5066 35.4315 33.0182C37.0768 34.7757 38.4686 36.7496 39.9362 38.6546C47.3945 48.3667 54.8529 58.0831 62.3112 67.804C65.5687 72.0337 69.6719 72.2633 73.4987 68.4597C75.3973 66.5711 77.2531 64.6333 79.1748 62.761C82.6396 59.3838 86.5717 59.5871 89.4015 63.525C95.0808 71.4271 100.619 79.4342 106.183 87.415C106.618 88.0411 106.951 88.7316 107.17 89.461C107.71 91.2939 106.946 92.7694 105.08 93.258C103.911 93.5371 102.71 93.666 101.507 93.6416C85.7875 93.6679 70.0591 93.6733 54.322 93.658Z" fill="#98989A"/>
<path d="M89.3685 15.4073C89.3645 18.4554 88.4524 21.4337 86.7477 23.9646C85.043 26.4955 82.6226 28.465 79.7933 29.6234C76.9639 30.7819 73.8531 31.0771 70.8552 30.4716C67.8573 29.8662 65.1073 28.3874 62.9539 26.2226C60.8005 24.0578 59.3406 21.3047 58.7593 18.3121C58.178 15.3195 58.5015 12.2224 59.6887 9.41323C60.876 6.6041 62.8736 4.20953 65.4282 2.53307C67.9829 0.856621 70.9796 -0.0262034 74.0383 -0.00347831C78.1114 0.0480997 82.001 1.69251 84.8687 4.57527C87.7364 7.45803 89.3524 11.3483 89.3685 15.4073Z" fill="#98989A"/>
</svg>
